<svg width="32" height="32" viewBox="0 0 32 32" fill="none" xmlns="http://www.w3.org/2000/svg">
<path d="M24.96 19.68C25.4267 18.5467 25.68 17.3333 25.68 16C25.68 15.04 25.5333 14.12 25.28 13.2667C24.4133 13.4667 23.5067 13.5733 22.56 13.5733C20.6213 13.5754 18.7105 13.1114 16.9887 12.2203C15.2669 11.3292 13.7846 10.0373 12.6667 8.45333C11.4719 11.3477 9.21563 13.6755 6.36 14.96C6.30667 15.2933 6.30667 15.6533 6.30667 16C6.30667 17.2729 6.5574 18.5334 7.04453 19.7095C7.53167 20.8855 8.24567 21.9541 9.14578 22.8542C10.9636 24.6721 13.4292 25.6933 16 25.6933C17.4 25.6933 18.7467 25.3867 19.96 24.84C20.72 26.2933 21.0667 27.0133 21.04 27.0133C18.8533 27.7467 17.16 28.1067 16 28.1067C12.7733 28.1067 9.69334 26.84 7.42667 24.56C6.04674 23.1866 5.0217 21.498 4.44 19.64H2.66667V13.5733H4.12C4.56033 11.43 5.57266 9.44588 7.04959 7.83145C8.52652 6.21703 10.4129 5.03254 12.5087 4.40368C14.6045 3.77481 16.8314 3.72503 18.9532 4.25961C21.0749 4.79419 23.0124 5.89319 24.56 7.44C26.2397 9.11411 27.3857 11.2484 27.8533 13.5733H29.3333V19.64H29.2533L24.5067 24L17.44 23.2V20.9733H23.88L24.96 19.68ZM12.36 15.6933C12.76 15.6933 13.1467 15.8533 13.4267 16.1467C13.7081 16.4304 13.866 16.8138 13.866 17.2133C13.866 17.6129 13.7081 17.9963 13.4267 18.28C13.1467 18.56 12.76 18.72 12.36 18.72C11.52 18.72 10.84 18.0533 10.84 17.2133C10.84 16.3733 11.52 15.6933 12.36 15.6933ZM19.6267 15.6933C20.4667 15.6933 21.1333 16.3733 21.1333 17.2133C21.1333 18.0533 20.4667 18.72 19.6267 18.72C18.7867 18.72 18.1067 18.0533 18.1067 17.2133C18.1067 16.8102 18.2668 16.4236 18.5519 16.1385C18.8369 15.8535 19.2235 15.6933 19.6267 15.6933Z" fill="#0D1F2A"/>
</svg>
