<svg width="32" height="32" viewBox="0 0 32 32" fill="none" xmlns="http://www.w3.org/2000/svg">
<path d="M16 3.2C14.727 3.2 13.5061 3.70571 12.6059 4.60589C11.7057 5.50606 11.2 6.72696 11.2 8C11.2 9.27304 11.7057 10.4939 12.6059 11.3941C13.5061 12.2943 14.727 12.8 16 12.8C17.273 12.8 18.4939 12.2943 19.3941 11.3941C20.2943 10.4939 20.8 9.27304 20.8 8C20.8 6.72696 20.2943 5.50606 19.3941 4.60589C18.4939 3.70571 17.273 3.2 16 3.2ZM8.08481 15.9936C8.03041 16.2539 8.00321 16.5227 8.00321 16.8V22.4C8.00216 23.5616 8.2546 24.7094 8.7429 25.7634C9.2312 26.8174 9.94361 27.7521 10.8304 28.5024L10.5568 28.5824C9.74492 28.8002 8.89809 28.8559 8.06467 28.7464C7.23125 28.6368 6.42757 28.3642 5.69954 27.944C4.9715 27.5238 4.33337 26.9643 3.82159 26.2975C3.30981 25.6307 2.9344 24.8695 2.71681 24.0576L1.68161 20.1936C1.60007 19.8891 1.57931 19.5716 1.62049 19.2591C1.66168 18.9466 1.76402 18.6453 1.92165 18.3724C2.07929 18.0995 2.28915 17.8603 2.53923 17.6684C2.78932 17.4766 3.07475 17.3359 3.37921 17.2544L8.08481 15.9936ZM21.176 28.5024C22.0628 27.7521 22.7752 26.8174 23.2635 25.7634C23.7518 24.7094 24.0043 23.5616 24.0032 22.4V16.8C24.0021 16.5227 23.9755 16.2539 23.9232 15.9936L28.6272 17.2544C29.2418 17.4194 29.7657 17.8217 30.0838 18.3728C30.4018 18.924 30.4879 19.5789 30.3232 20.1936L29.288 24.0576C29.0642 24.8925 28.6735 25.6735 28.1397 26.3533C27.6058 27.0331 26.9397 27.5977 26.1816 28.0131C25.4236 28.4285 24.5892 28.686 23.7289 28.7701C22.8686 28.8542 22.0002 28.7631 21.176 28.5024ZM26.4 6.4C25.3391 6.4 24.3217 6.82143 23.5716 7.57157C22.8214 8.32172 22.4 9.33913 22.4 10.4C22.4 11.4609 22.8214 12.4783 23.5716 13.2284C24.3217 13.9786 25.3391 14.4 26.4 14.4C27.4609 14.4 28.4783 13.9786 29.2284 13.2284C29.9786 12.4783 30.4 11.4609 30.4 10.4C30.4 9.33913 29.9786 8.32172 29.2284 7.57157C28.4783 6.82143 27.4609 6.4 26.4 6.4ZM5.60001 6.4C4.53914 6.4 3.52173 6.82143 2.77158 7.57157C2.02144 8.32172 1.60001 9.33913 1.60001 10.4C1.60001 11.4609 2.02144 12.4783 2.77158 13.2284C3.52173 13.9786 4.53914 14.4 5.60001 14.4C6.66088 14.4 7.67829 13.9786 8.42844 13.2284C9.17858 12.4783 9.60001 11.4609 9.60001 10.4C9.60001 9.33913 9.17858 8.32172 8.42844 7.57157C7.67829 6.82143 6.66088 6.4 5.60001 6.4ZM12 14.4C11.3635 14.4 10.753 14.6529 10.303 15.1029C9.85287 15.553 9.60001 16.1635 9.60001 16.8V22.4C9.60001 24.0974 10.2743 25.7252 11.4745 26.9255C12.6748 28.1257 14.3026 28.8 16 28.8C17.6974 28.8 19.3253 28.1257 20.5255 26.9255C21.7257 25.7252 22.4 24.0974 22.4 22.4V16.8C22.4 16.1635 22.1472 15.553 21.6971 15.1029C21.247 14.6529 20.6365 14.4 20 14.4H12Z" fill="#0D1F2A"/>
</svg>
