<svg width="40" height="40" viewBox="0 0 40 40" fill="none" xmlns="http://www.w3.org/2000/svg">
<path d="M30.8333 5H26.6667C26.4456 5 26.2337 5.0878 26.0774 5.24408C25.9211 5.40036 25.8333 5.61232 25.8333 5.83333V5.93167L31.6667 10.5983V5.83333C31.6667 5.61232 31.5789 5.40036 31.4226 5.24408C31.2663 5.0878 31.0543 5 30.8333 5Z" fill="#0D1F2A"/>
<path d="M17.9167 15.8333C17.9167 15.2808 18.1362 14.7509 18.5269 14.3602C18.9176 13.9695 19.4475 13.75 20 13.75C20.5525 13.75 21.0824 13.9695 21.4731 14.3602C21.8638 14.7509 22.0833 15.2808 22.0833 15.8333C22.0833 16.3859 21.8638 16.9158 21.4731 17.3065C21.0824 17.6972 20.5525 17.9167 20 17.9167C19.4475 17.9167 18.9176 17.6972 18.5269 17.3065C18.1362 16.9158 17.9167 16.3859 17.9167 15.8333Z" fill="#0D1F2A"/>
<path fill-rule="evenodd" clip-rule="evenodd" d="M34.5833 18.2667L35.8867 19.31C36.1461 19.5122 36.4748 19.604 36.8015 19.5654C37.1282 19.5269 37.4265 19.3611 37.6318 19.1041C37.837 18.8471 37.9327 18.5195 37.8981 18.1924C37.8634 17.8653 37.7012 17.565 37.4467 17.3567L23.905 6.52334C22.7967 5.63644 21.4195 5.15324 20 5.15324C18.5805 5.15324 17.2033 5.63644 16.095 6.52334L2.55334 17.3567C2.29432 17.5638 2.12816 17.8653 2.09144 18.1949C2.05471 18.5245 2.15042 18.8551 2.35751 19.1142C2.5646 19.3732 2.86611 19.5393 3.1957 19.5761C3.5253 19.6128 3.85598 19.5171 4.11501 19.31L5.41668 18.2667V35.4167H3.33334C3.00182 35.4167 2.68388 35.5484 2.44946 35.7828C2.21504 36.0172 2.08334 36.3351 2.08334 36.6667C2.08334 36.9982 2.21504 37.3161 2.44946 37.5506C2.68388 37.785 3.00182 37.9167 3.33334 37.9167H36.6667C36.9982 37.9167 37.3161 37.785 37.5506 37.5506C37.785 37.3161 37.9167 36.9982 37.9167 36.6667C37.9167 36.3351 37.785 36.0172 37.5506 35.7828C37.3161 35.5484 36.9982 35.4167 36.6667 35.4167H34.5833V18.2667ZM15.4167 15.8333C15.4167 14.6178 15.8996 13.452 16.7591 12.5924C17.6186 11.7329 18.7844 11.25 20 11.25C21.2156 11.25 22.3814 11.7329 23.2409 12.5924C24.1005 13.452 24.5833 14.6178 24.5833 15.8333C24.5833 17.0489 24.1005 18.2147 23.2409 19.0742C22.3814 19.9338 21.2156 20.4167 20 20.4167C18.7844 20.4167 17.6186 19.9338 16.7591 19.0742C15.8996 18.2147 15.4167 17.0489 15.4167 15.8333ZM20.0833 22.0833C21.19 22.0833 22.145 22.0833 22.91 22.1867C23.73 22.2967 24.515 22.545 25.1517 23.1817C25.7883 23.8183 26.0367 24.6033 26.1467 25.4233C26.2433 26.14 26.25 27.0233 26.25 28.045V35.4167H23.75V28.3333C23.75 27.12 23.7467 26.3333 23.67 25.7567C23.5967 25.215 23.48 25.045 23.3833 24.95C23.2867 24.855 23.1183 24.7367 22.5767 24.6633C21.9983 24.5867 21.2133 24.5833 20 24.5833C18.7867 24.5833 18 24.5867 17.4233 24.6633C16.8817 24.7367 16.7117 24.855 16.6167 24.95C16.5217 25.045 16.4033 25.215 16.33 25.7567C16.2533 26.335 16.25 27.12 16.25 28.3333V35.4167H13.75V28.25C13.75 27.1433 13.75 26.1883 13.8533 25.4233C13.9633 24.6033 14.2117 23.8183 14.8483 23.1817C15.485 22.545 16.2717 22.2967 17.09 22.1867C17.855 22.0833 18.81 22.0833 19.9183 22.0833H20.0833Z" fill="#0D1F2A"/>
<path d="M17.9167 15.8333C17.9167 15.2808 18.1362 14.7509 18.5269 14.3602C18.9176 13.9695 19.4475 13.75 20 13.75C20.5525 13.75 21.0824 13.9695 21.4731 14.3602C21.8638 14.7509 22.0833 15.2808 22.0833 15.8333C22.0833 16.3859 21.8638 16.9158 21.4731 17.3065C21.0824 17.6972 20.5525 17.9167 20 17.9167C19.4475 17.9167 18.9176 17.6972 18.5269 17.3065C18.1362 16.9158 17.9167 16.3859 17.9167 15.8333Z" fill="#0D1F2A"/>
</svg>
